<?xml version="1.0" encoding="UTF-8"?>
<svg width="86px" height="86px" viewBox="0 0 86 86" version="1.1" xmlns="http://www.w3.org/2000/svg" xmlns:xlink="http://www.w3.org/1999/xlink">
    <!-- Generator: Sketch 51 (57462) - http://www.bohemiancoding.com/sketch -->
    <title>Group 3</title>
    <desc>Created with Sketch.</desc>
    <defs></defs>
    <g id="v1.0.0" stroke="none" stroke-width="1" fill="none" fill-rule="evenodd">
        <g id="麦邻租房" transform="translate(-145.000000, -128.000000)">
            <rect fill="#F6F6F7" x="0" y="0" width="375" height="667"></rect>
            <g id="Group-3" transform="translate(145.000000, 128.000000)">
                <circle id="Oval-3" stroke="#FFFFFF" stroke-width="4" fill="#F5F5F5" cx="43" cy="43" r="41"></circle>
                <g id="Group-4" transform="translate(22.000000, 23.000000)" fill="#FFFFFF">
                    <path d="M35.1271777,13.8413376 L35.1271777,23.9023666 C35.1271777,24.4534277 34.8189826,24.9626238 34.3150401,25.238508 L21.8494443,32.0629453 C21.6146969,32.1914341 21.3569164,32.2590225 21.0966899,32.2679614 C20.8364634,32.2590225 20.5786829,32.1914341 20.3439355,32.0629453 L7.87833972,25.238508 C7.37439721,24.9626238 7.06620209,24.4534277 7.06620209,23.9023666 L7.06620209,13.8413376 L0,17.694328 L0,27.9111125 C0.0679442509,28.4032669 0.352562718,28.846418 0.810506969,29.0969003 L20.3429164,39.7806302 C20.8433258,40.0542637 21.3503258,40.0540707 21.8504634,39.7806302 L41.3828728,29.0969003 C41.8408171,28.846418 42.1254355,28.4032669 42.1933798,27.9111125 L42.1933798,17.694328 L35.1271777,13.8413376 Z" id="Fill-9"></path>
                    <path d="M35.1283735,14.4713569 L40.9703561,11.2789453 C41.5139101,10.9819035 42.1933526,11.3532219 42.1933526,11.9473055 L42.1933526,18.3320643 L35.1283735,14.4713569 Z" id="Fill-11"></path>
                    <path d="M35.1975747,7.55258521 C35.1963517,7.55194212 35.1951287,7.55129904 35.1939057,7.55072026 C34.7062019,7.31978778 34.125958,7.33406431 33.6498726,7.594 L21.8658256,14.0581801 C21.385188,14.3208167 20.8082054,14.3208167 20.3275678,14.0581801 L8.54352073,7.594 C8.06743537,7.33406431 7.48719146,7.31978778 6.99941969,7.55072026 C6.99826463,7.55129904 6.99697369,7.55194212 6.99581864,7.55258521 L0.524060801,11.0831318 C0.411816899,11.1577942 0.310579965,11.2496913 0.231356969,11.3559293 C0.15369669,11.4579871 0.087654878,11.5657042 0.0484510453,11.6866045 C0.162665331,11.3932283 0.463726307,11.2032605 0.784830836,11.1896913 C0.932066028,11.1832605 1.08473676,11.2150932 1.22803118,11.2934212 L19.9366845,21.5198521 C20.689235,21.9311704 21.5044981,21.9309775 22.2567089,21.5198521 L40.9653622,11.2934212 C41.1086566,11.2150932 41.2613274,11.1832605 41.4085625,11.1896913 C41.7296671,11.2032605 42.0346688,11.3992733 42.148951,11.6926495 C42.0813465,11.4846109 41.9468848,11.2745145 41.754127,11.1463473 C41.7531758,11.1457042 35.1975747,7.55258521 35.1975747,7.55258521" id="Fill-13"></path>
                    <path d="M29.9849122,4.66032797 L21.8875882,0.235440514 C21.4616456,0.0027073955 20.7732345,0.0027073955 20.3500098,0.235440514 L12.3053425,4.66039228 C11.8820498,4.89318971 11.8843599,5.27055305 12.3103024,5.50335048 L20.4076944,9.92823794 C20.8337049,10.1609711 21.5219801,10.1609711 21.9452728,9.92817363 L29.9899401,5.50328617 C30.4131648,5.27048875 30.4109906,4.8931254 29.9849122,4.66032797" id="Fill-15"></path>
                    <path d="M7.06620209,14.4713569 L1.22421951,11.2789453 C0.680665505,10.9819035 0.00122299652,11.3532219 0.00122299652,11.9473055 L0.00122299652,18.3320643 L7.06620209,14.4713569 Z" id="Fill-17"></path>
                </g>
            </g>
        </g>
    </g>
</svg>